<?xml version="1.0" standalone="no"?>
<!DOCTYPE svg PUBLIC "-//W3C//DTD SVG 1.1//EN" "http://www.w3.org/Graphics/SVG/1.1/DTD/svg11.dtd" >
<svg xmlns="http://www.w3.org/2000/svg" xmlns:xlink="http://www.w3.org/1999/xlink" version="1.1">
<metadata></metadata>
<defs>
<font id="fira_sans_compressedregular" horiz-adv-x="997" >
<font-face units-per-em="2048" ascent="1638" descent="-410" />
<missing-glyph horiz-adv-x="434" />
<glyph unicode="&#xfb01;" horiz-adv-x="983" d="M20 938v141h142v164q0 127 78.5 209t234.5 82q139 0 266 -74l-59 -119q-92 45 -197 45q-77 0 -110 -34t-33 -107v-166h492v-1079h-181v938h-311v-938h-180v938h-142z" />
<glyph unicode="&#xfb02;" horiz-adv-x="1021" d="M20 938v141h142v170q0 128 77.5 206.5t225.5 78.5q100 0 203 -39l174 21v-1323q0 -68 57 -68q26 0 51 10l41 -123q-61 -37 -131 -37q-90 0 -144 57.5t-54 155.5v1172q-91 29 -179 29q-78 0 -109.5 -32t-31.5 -106v-172h203l-21 -141h-182v-938h-180v938h-142z" />
<glyph horiz-adv-x="0" />
<glyph horiz-adv-x="682" />
<glyph unicode="&#xd;" horiz-adv-x="434" />
<glyph unicode=" "  horiz-adv-x="434" />
<glyph unicode="&#x09;" horiz-adv-x="434" />
<glyph unicode="&#xa0;" horiz-adv-x="434" />
<glyph unicode="!" horiz-adv-x="448" d="M92 111q0 56 36.5 95.5t94.5 39.5q60 0 96.5 -39.5t36.5 -95.5t-36.5 -96t-96.5 -40q-58 0 -94.5 40t-36.5 96zM125 1411h194l-22 -942h-147z" />
<glyph unicode="&#x22;" horiz-adv-x="761" d="M109 1411h176l-25 -534h-127zM477 1411h176l-24 -534h-127z" />
<glyph unicode="#" horiz-adv-x="884" d="M25 338v135h120l60 445h-119v137h137l41 315h148l-41 -315h237l41 315h148l-41 -315h104v-137h-123l-59 -445h121v-135h-137l-46 -338h-147l45 338h-238l-45 -338h-147l45 338h-104zM293 473h237l60 445h-238z" />
<glyph unicode="$" horiz-adv-x="897" d="M31 154l96 102q69 -64 138 -97.5t153 -33.5q106 0 168.5 67.5t62.5 184.5q0 98 -51 157.5t-188 110.5q-173 64 -253.5 157t-80.5 236q0 130 86 227.5t219 120.5v300h145v-300q152 -22 275 -151l-96 -105q-121 115 -252 115q-89 0 -142 -54t-53 -144q0 -89 51.5 -145.5 t194.5 -110.5q63 -24 109.5 -48t90 -59t71 -76.5t43.5 -99.5t16 -129q0 -141 -83 -250t-225 -141v-303h-145v292q-206 14 -350 177z" />
<glyph unicode="%" horiz-adv-x="1421" d="M82 1044q0 163 77 255t199 92q124 0 201.5 -91t77.5 -253q0 -163 -77.5 -255t-201.5 -92q-122 0 -199 91t-77 253zM227 1044q0 -106 29.5 -163.5t101.5 -57.5q74 0 102.5 57t28.5 167q0 106 -29 163.5t-102 57.5q-72 0 -101.5 -57.5t-29.5 -166.5zM262 6l780 1448 l121 -68l-780 -1447zM784 319q0 163 77.5 255t201.5 92q122 0 199 -92t77 -255q0 -162 -76.5 -253t-199.5 -91q-124 0 -201.5 91t-77.5 253zM930 319q0 -106 30 -163.5t103 -57.5q72 0 100.5 56.5t28.5 164.5q0 107 -28.5 164.5t-100.5 57.5q-74 0 -103.5 -56.5 t-29.5 -165.5z" />
<glyph unicode="&#x26;" horiz-adv-x="1241" d="M137 358q0 125 58.5 219t179.5 187q-89 95 -128.5 173.5t-39.5 180.5q0 141 82 228.5t233 87.5q145 0 232.5 -86t87.5 -224q0 -64 -17.5 -119t-52.5 -100.5t-75 -81.5t-95 -75l287 -347q64 174 100 347l156 -43q-60 -235 -150 -408l195 -215l-133 -107l-162 201 q-150 -201 -373 -201q-171 0 -278 106t-107 277zM324 362q0 -118 57 -180.5t154 -62.5q150 0 262 155l-324 394q-79 -65 -114 -136t-35 -170zM381 1120q0 -76 29 -137t96 -143q84 67 123 127t39 147q0 189 -144 189q-68 0 -105.5 -46.5t-37.5 -136.5z" />
<glyph unicode="'" horiz-adv-x="393" d="M109 1411h176l-25 -534h-127z" />
<glyph unicode="(" horiz-adv-x="544" d="M57 717q0 139 18 265t44 219t72.5 195.5t84 168.5t97.5 164l114 -76q-53 -95 -85.5 -159.5t-67.5 -154t-53.5 -174.5t-30.5 -198.5t-12 -249.5q0 -135 12 -248.5t30.5 -199t53 -174.5t67.5 -154t86 -160l-114 -76q-60 98 -97.5 164t-84 168.5t-72.5 195.5t-44 219 t-18 265z" />
<glyph unicode=")" horiz-adv-x="544" d="M57 -219q53 96 85 160t67 154t53.5 174.5t30.5 198.5t12 249t-12 249.5t-30.5 198.5t-53.5 174t-67 154t-85 160l115 76q60 -97 97.5 -163.5t83.5 -168.5t72 -195.5t44 -219.5t18 -265t-18 -265t-44 -219.5t-72 -195.5t-83.5 -168.5t-97.5 -163.5z" />
<glyph unicode="*" horiz-adv-x="782" d="M51 1153l51 137l234 -108l-29 331h168l-29 -331l234 110l51 -139l-250 -68l183 -243l-146 -80l-127 266l-127 -266l-143 78l180 245z" />
<glyph unicode="+" horiz-adv-x="851" d="M98 602v150h250v301h156v-301h250v-150h-250v-297h-156v297h-250z" />
<glyph unicode="," horiz-adv-x="417" d="M72 -336l71 334q-61 45 -61 115q0 57 36 95t93 38q55 0 90 -38t35 -95q0 -41 -37 -142l-111 -307h-116z" />
<glyph unicode="-" horiz-adv-x="694" d="M102 565v152h490v-152h-490z" />
<glyph unicode="." horiz-adv-x="428" d="M82 111q0 56 36.5 95.5t94.5 39.5q60 0 96.5 -39.5t36.5 -95.5t-36.5 -96t-96.5 -40q-58 0 -94.5 40t-36.5 96z" />
<glyph unicode="/" horiz-adv-x="874" d="M164 -182l399 1833l148 -29l-400 -1833z" />
<glyph unicode="0" d="M111 684q0 361 97 534t292 173q194 0 290.5 -174t96.5 -533q0 -362 -96.5 -535.5t-290.5 -173.5q-195 0 -292 174t-97 535zM297 684q0 -211 23 -336.5t66.5 -177t113.5 -51.5q69 0 111.5 51.5t65.5 177t23 336.5q0 214 -23 339t-65.5 174.5t-111.5 49.5 q-70 0 -113.5 -51.5t-66.5 -176.5t-23 -335z" />
<glyph unicode="1" horiz-adv-x="733" d="M37 1108l356 262h160v-1370h-178v1180l-256 -189z" />
<glyph unicode="2" horiz-adv-x="825" d="M20 1184q139 207 351 207q162 0 257 -102.5t95 -262.5q0 -64 -10 -121t-38 -122.5t-59 -121t-94.5 -144t-121 -162.5t-160.5 -203h510l-21 -152h-682v143q309 393 399.5 551.5t90.5 323.5q0 110 -47.5 166.5t-131.5 56.5q-65 0 -114.5 -33.5t-106.5 -107.5z" />
<glyph unicode="3" horiz-adv-x="843" d="M16 160l113 88q61 -68 114 -97.5t124 -29.5q97 0 156 71.5t59 202.5q0 139 -60 196.5t-182 57.5h-76l21 133h49q101 0 162 64.5t61 187.5q0 104 -51.5 159.5t-140.5 55.5q-122 0 -222 -112l-98 92q149 162 338 162q155 0 249.5 -100.5t94.5 -243.5q0 -256 -252 -320 q133 -16 210 -100.5t77 -233.5q0 -176 -108 -297t-287 -121q-108 0 -192.5 45t-158.5 140z" />
<glyph unicode="4" horiz-adv-x="907" d="M61 340v131l334 920l154 -58l-303 -850h303l18 373h152v-373h141v-143h-141v-340h-172v340h-486z" />
<glyph unicode="5" horiz-adv-x="864" d="M43 150l107 96q55 -63 109.5 -93t123.5 -30q105 0 163 81t58 238q0 159 -51 225t-143 66q-79 0 -158 -49h-133v686h629l-25 -143h-432v-410q82 53 176 53q145 0 234.5 -115t89.5 -317q0 -205 -111.5 -334t-292.5 -129q-108 0 -188 43.5t-156 131.5z" />
<glyph unicode="6" horiz-adv-x="948" d="M111 639q0 354 118 553t324 199q133 0 238 -84l-70 -117q-79 57 -166 57q-118 0 -187.5 -134t-76.5 -384q99 170 266 170q133 0 223 -112.5t90 -321.5q0 -233 -101.5 -361.5t-266.5 -128.5q-391 0 -391 664zM291 563q4 -236 54.5 -340t156.5 -104q94 0 142 86.5t48 253.5 q0 301 -174 301q-66 0 -125 -53t-102 -144z" />
<glyph unicode="7" horiz-adv-x="755" d="M37 1223v147h674v-137l-422 -1253l-160 51l403 1192h-495z" />
<glyph unicode="8" horiz-adv-x="937" d="M70 360q0 251 239 361q-103 58 -147.5 134.5t-44.5 182.5q0 167 102 260t250 93q71 0 133.5 -21.5t112.5 -63t79 -109t29 -153.5q0 -104 -50.5 -178t-160.5 -133q130 -60 193 -150t63 -218q0 -177 -110 -283.5t-293 -106.5q-180 0 -287.5 106t-107.5 279zM252 360 q0 -245 217 -245q219 0 219 247q0 111 -50 173t-179 118l-41 19q-88 -46 -127 -121.5t-39 -190.5zM291 1036q0 -51 11.5 -88.5t37.5 -66t57.5 -48t81.5 -42.5l29 -13q78 52 109.5 111t31.5 149q0 114 -45 166.5t-135 52.5q-87 0 -132.5 -51t-45.5 -170z" />
<glyph unicode="9" horiz-adv-x="913" d="M68 938q0 218 105.5 335.5t268.5 117.5q187 0 283 -138.5t96 -396.5q0 -169 -24.5 -297t-71 -222t-125.5 -165.5t-174 -121t-231 -95.5l-39 135q112 38 192.5 84.5t143.5 111.5t98.5 153.5t44.5 203.5q-90 -143 -244 -143q-132 0 -227.5 120.5t-95.5 317.5zM248 934 q0 -145 48 -219t132 -74q129 0 213 172q0 164 -21 260t-63.5 136t-112.5 40q-196 0 -196 -315z" />
<glyph unicode=":" horiz-adv-x="428" d="M82 111q0 56 36.5 95.5t94.5 39.5q60 0 96.5 -39.5t36.5 -95.5t-36.5 -96t-96.5 -40q-58 0 -94.5 40t-36.5 96zM82 864q0 56 36.5 95.5t94.5 39.5q60 0 96.5 -39.5t36.5 -95.5t-36.5 -95.5t-96.5 -39.5q-58 0 -94.5 39.5t-36.5 95.5z" />
<glyph unicode=";" horiz-adv-x="428" d="M72 -336l71 334q-61 45 -61 115q0 57 36 95t93 38q55 0 90 -38t35 -95q0 -41 -37 -142l-111 -307h-116zM82 864q0 56 36.5 95.5t94.5 39.5q60 0 96.5 -39.5t36.5 -95.5t-36.5 -95.5t-96.5 -39.5q-58 0 -94.5 39.5t-36.5 95.5z" />
<glyph unicode="&#x3c;" horiz-adv-x="849" d="M76 592v180l629 340l69 -137l-555 -293l555 -297l-69 -135z" />
<glyph unicode="=" horiz-adv-x="845" d="M98 408v145h650v-145h-650zM98 801v145h650v-145h-650z" />
<glyph unicode="&#x3e;" horiz-adv-x="849" d="M76 385l555 297l-555 293l69 137l629 -340v-180l-629 -342z" />
<glyph unicode="?" horiz-adv-x="804" d="M57 1233q138 201 353 201q108 0 186.5 -46t115 -116t36.5 -154q0 -63 -17 -114t-44 -85.5t-59.5 -64t-65 -58t-59.5 -59.5t-44 -75t-17 -99v-94h-172v104q0 68 16.5 122t42.5 89.5t57 65.5t62.5 56.5t57.5 54.5t42.5 68t16.5 89q0 79 -44.5 123.5t-121.5 44.5 q-65 0 -119.5 -33t-111.5 -106zM229 111q0 56 36.5 95.5t94.5 39.5q60 0 97 -39.5t37 -95.5t-37 -96t-97 -40q-58 0 -94.5 40t-36.5 96z" />
<glyph unicode="@" horiz-adv-x="1734" d="M121 492q0 205 56 379.5t156.5 298.5t245.5 194t316 70q173 0 310.5 -61.5t226 -170t135.5 -254.5t47 -319t-38.5 -310t-116 -219t-183.5 -82q-87 0 -139.5 57t-73.5 136q-32 -80 -91.5 -134t-146.5 -54q-146 0 -224.5 117.5t-78.5 332.5q0 269 100.5 401t272.5 132 q141 0 268 -82v-529q0 -129 26 -183t81 -54q81 0 126.5 115t45.5 352q0 316 -139.5 488.5t-407.5 172.5q-278 0 -439 -217t-161 -577q0 -369 156.5 -573t443.5 -204q162 0 324 70l47 -139q-186 -80 -373 -80q-172 0 -314.5 62.5t-244 179.5t-157.5 292t-56 392zM694 473 q0 -168 36.5 -242.5t111.5 -74.5q89 0 164 127v573q-58 21 -111 21q-201 0 -201 -404z" />
<glyph unicode="A" d="M16 0l367 1411h231l367 -1411h-190l-84 358h-422l-84 -358h-185zM319 508h353l-176 747z" />
<glyph unicode="B" horiz-adv-x="1026" d="M156 0v1411h268q233 0 358 -92t125 -264q0 -121 -67 -198.5t-185 -111.5q68 -14 119.5 -37t95 -62.5t66 -101.5t22.5 -145q0 -199 -129.5 -299t-357.5 -100h-315zM342 150h129q144 0 218.5 56.5t74.5 192.5q0 140 -71 203.5t-216 63.5h-135v-516zM342 811h121 q254 0 254 229q0 121 -66.5 172.5t-208.5 51.5h-100v-453z" />
<glyph unicode="C" horiz-adv-x="954" d="M92 707q0 184 38.5 325.5t107 228t156.5 130t192 43.5q99 0 174.5 -34t152.5 -104l-96 -112q-110 98 -227 98q-301 0 -301 -575q0 -574 307 -574q48 0 94 18t72.5 37t62.5 52l101 -109q-140 -156 -334 -156q-228 0 -364 184.5t-136 547.5z" />
<glyph unicode="D" horiz-adv-x="1093" d="M156 0v1411h264q69 0 127 -7t119.5 -27t109 -52.5t91 -86.5t72 -126t45.5 -173t17 -226q0 -122 -17 -223.5t-45.5 -174.5t-70.5 -128.5t-88.5 -90.5t-103 -57t-111 -30.5t-114.5 -8.5h-295zM342 147h121q59 0 105.5 12.5t93 49t77 97.5t49.5 164.5t19 242.5 q0 103 -10.5 185t-27.5 139t-44 98.5t-55.5 65.5t-66.5 38t-71.5 18.5t-76.5 4.5h-113v-1115z" />
<glyph unicode="E" horiz-adv-x="890" d="M156 0v1411h647l-21 -149h-440v-469h383v-150h-383v-493h469v-150h-655z" />
<glyph unicode="F" horiz-adv-x="823" d="M156 0v1411h632l-20 -149h-426v-490h369v-147h-369v-625h-186z" />
<glyph unicode="G" horiz-adv-x="1081" d="M92 707q0 182 41.5 323.5t113.5 228.5t163.5 131t197.5 44q108 0 191.5 -37.5t165.5 -116.5l-103 -104q-66 57 -122.5 81.5t-131.5 24.5q-52 0 -96.5 -15.5t-86.5 -56t-71.5 -104t-47 -165.5t-17.5 -234q0 -219 36 -348t100 -179.5t167 -50.5q112 0 203 61v439h-193 l-20 151h393v-680q-179 -125 -385 -125q-498 0 -498 732z" />
<glyph unicode="H" horiz-adv-x="1138" d="M156 0v1411h186v-594h455v594h186v-1411h-186v664h-455v-664h-186z" />
<glyph unicode="I" horiz-adv-x="497" d="M156 0v1411h186v-1411h-186z" />
<glyph unicode="J" horiz-adv-x="516" d="M0 -145q112 59 147 127.5t35 220.5v1208h187v-1216q0 -105 -22.5 -184t-67.5 -133t-99 -89t-131 -65z" />
<glyph unicode="K" horiz-adv-x="1011" d="M156 0v1411h186v-1411h-186zM350 754l432 657h199l-430 -645l461 -766h-211z" />
<glyph unicode="L" horiz-adv-x="831" d="M156 0v1411h186v-1247h469l-20 -164h-635z" />
<glyph unicode="M" horiz-adv-x="1351" d="M113 0l96 1411h242l229 -1034l217 1034h248l94 -1411h-176l-37 641q-22 354 -22 538v42l-240 -1061h-174l-252 1063q1 -42 1 -92q0 -191 -15 -502l-35 -629h-176z" />
<glyph unicode="N" horiz-adv-x="1140" d="M156 0v1411h247l435 -1204q-7 32 -17 169t-10 255v780h174v-1411h-248l-434 1202q27 -311 27 -538v-664h-174z" />
<glyph unicode="O" horiz-adv-x="1177" d="M92 702q0 362 133 547t365 185q233 0 364 -180.5t131 -548.5q0 -364 -131 -547t-364 -183t-365.5 180.5t-132.5 546.5zM289 702q0 -158 21 -270.5t61.5 -178t94 -95t124.5 -29.5q72 0 125.5 29.5t93.5 96t60 179t20 271.5q0 209 -36.5 339t-101 184t-161.5 54 q-72 0 -126 -30.5t-94 -97.5t-60.5 -180.5t-20.5 -271.5z" />
<glyph unicode="P" horiz-adv-x="974" d="M156 0v1411h274q249 0 376.5 -110.5t127.5 -325.5q0 -230 -130.5 -341.5t-369.5 -111.5h-92v-522h-186zM342 670h92q158 0 231.5 66.5t73.5 236.5q0 153 -74.5 222t-230.5 69h-92v-594z" />
<glyph unicode="Q" horiz-adv-x="1177" d="M92 702q0 362 133 547t365 185t363.5 -182.5t131.5 -546.5q0 -259 -70.5 -402t-205.5 -223q187 -5 338 -143l-125 -146q-93 108 -188 149.5t-252 41.5q-223 0 -356.5 181.5t-133.5 538.5zM289 702q0 -158 21 -270.5t61.5 -178t94 -95t124.5 -29.5q72 0 125.5 29.5 t93.5 96t60 179t20 271.5q0 209 -36.5 339t-101 184t-161.5 54q-72 0 -126 -30.5t-94 -97.5t-60.5 -180.5t-20.5 -271.5z" />
<glyph unicode="R" horiz-adv-x="1028" d="M156 0v1411h282q248 0 369 -102.5t121 -294.5q0 -135 -64 -233t-182 -142l309 -639h-205l-274 604q-14 -2 -43 -2h-127v-602h-186zM342 745h111q146 0 212 65t66 204q0 129 -68 189.5t-227 60.5h-94v-519z" />
<glyph unicode="S" horiz-adv-x="921" d="M31 158l100 106q71 -66 141.5 -100.5t157.5 -34.5q106 0 170 69.5t64 188.5q0 102 -51 163.5t-191 113.5q-179 67 -261.5 163t-82.5 242q0 154 109 259.5t276 105.5q112 0 198.5 -40.5t161.5 -121.5l-98 -107q-64 61 -125.5 89t-134.5 28q-88 0 -142.5 -56.5 t-54.5 -148.5q0 -90 52 -147.5t198 -112.5q82 -31 139 -64.5t105 -83t72 -119t24 -159.5q0 -112 -50.5 -206t-148.5 -152t-225 -58q-238 0 -403 183z" />
<glyph unicode="T" horiz-adv-x="876" d="M23 1255v156h841l-20 -156h-314v-1255h-186v1255h-321z" />
<glyph unicode="U" horiz-adv-x="1101" d="M135 379v1032h187v-1018q0 -260 229 -260t229 260v1018h187v-1032q0 -114 -46.5 -204t-142 -145t-227.5 -55q-134 0 -229.5 55t-141 145t-45.5 204z" />
<glyph unicode="V" horiz-adv-x="966" d="M16 1411h189l284 -1210l279 1210h182l-356 -1411h-215z" />
<glyph unicode="W" horiz-adv-x="1413" d="M45 1411h180l170 -1247l209 1247h205l209 -1247l176 1247h174l-225 -1411h-244l-194 1188l-197 -1188h-240z" />
<glyph unicode="X" horiz-adv-x="919" d="M4 0l342 752l-313 659h196l230 -543l233 543h187l-312 -649l348 -762h-196l-264 637l-262 -637h-189z" />
<glyph unicode="Y" horiz-adv-x="940" d="M4 1411h199l272 -704l270 704h191l-373 -868v-543h-186v541z" />
<glyph unicode="Z" horiz-adv-x="874" d="M45 0v150l578 1103h-521v158h715v-151l-577 -1100h577l-20 -160h-752z" />
<glyph unicode="[" horiz-adv-x="540" d="M98 -238v1907h367v-149h-197v-1610h197v-148h-367z" />
<glyph unicode="\" horiz-adv-x="874" d="M164 1616l147 29l400 -1827l-148 -29z" />
<glyph unicode="]" horiz-adv-x="540" d="M76 -90h196v1610h-196v149h366v-1907h-366v148z" />
<glyph unicode="^" horiz-adv-x="913" d="M59 1079l316 639h162l317 -639h-188l-213 482l-209 -482h-185z" />
<glyph unicode="_" horiz-adv-x="880" d="M31 -131h819v-156h-819v156z" />
<glyph unicode="`" horiz-adv-x="540" d="M72 1485l80 143l337 -229l-53 -90z" />
<glyph unicode="a" horiz-adv-x="923" d="M72 301q0 172 106 263t309 91h107v99q0 107 -42 155.5t-130 48.5q-106 0 -244 -55l-45 127q167 72 311 72q166 0 247 -89t81 -251v-533q0 -57 17 -85t53 -44l-39 -125q-76 13 -120 48.5t-62 107.5q-87 -156 -259 -156q-134 0 -212 89t-78 237zM258 309q0 -99 36.5 -148.5 t104.5 -49.5q128 0 195 172v252h-86q-128 0 -189 -55.5t-61 -170.5z" />
<glyph unicode="b" horiz-adv-x="999" d="M150 0v1511l180 19v-582q97 154 248 154q156 0 242.5 -141t86.5 -420q0 -264 -94.5 -415t-253.5 -151q-142 0 -237 138l-13 -113h-159zM330 258q80 -139 190 -139q197 0 197 422q0 120 -13 203.5t-38.5 129t-57 65t-73.5 19.5q-115 0 -205 -165v-535z" />
<glyph unicode="c" horiz-adv-x="800" d="M92 530q0 271 108.5 421.5t295.5 150.5q156 0 274 -115l-82 -106q-94 75 -186 75q-217 0 -217 -421q0 -219 55.5 -313.5t159.5 -94.5q52 0 93.5 18.5t92.5 57.5l84 -109q-122 -119 -272 -119q-193 0 -299.5 138.5t-106.5 416.5z" />
<glyph unicode="d" horiz-adv-x="1005" d="M92 535q0 257 97.5 412t254.5 155q143 0 232 -125v557l180 -21v-1513h-160l-12 137q-96 -162 -246 -162q-167 0 -256.5 148.5t-89.5 411.5zM283 539q0 -420 190 -420q117 0 203 153v547q-84 139 -195 139q-198 0 -198 -419z" />
<glyph unicode="e" horiz-adv-x="929" d="M92 528q0 269 102 421.5t285 152.5q179 0 274 -134.5t95 -396.5q0 -44 -4 -94h-565q7 -194 64 -274t161 -80q67 0 120.5 21.5t110.5 68.5l80 -109q-135 -129 -317 -129q-192 0 -299 142.5t-107 410.5zM279 610h395v15q0 176 -47.5 256t-147.5 80q-91 0 -142 -81.5 t-58 -269.5z" />
<glyph unicode="f" horiz-adv-x="579" d="M20 938v141h150v170q0 127 77 206t216 79q112 0 219 -55l-53 -127q-75 37 -152 37q-66 0 -96.5 -33.5t-30.5 -104.5v-172h217l-20 -141h-197v-938h-180v938h-150z" />
<glyph unicode="g" horiz-adv-x="888" d="M37 -109h160q0 -100 48.5 -142t184.5 -42q131 0 188.5 44t57.5 128q0 160 -189 160h-75q-149 0 -216 54t-67 147q0 97 107 184q-158 98 -158 303q0 169 99.5 272t260.5 103q143 0 225.5 22.5t167.5 69.5l54 -162q-77 -33 -254 -33q157 -86 157 -274q0 -166 -92.5 -265.5 t-253.5 -99.5q-56 0 -108 21q-43 -37 -43 -102q0 -46 24.5 -71.5t87.5 -25.5h119q152 0 242 -84t90 -207q0 -147 -110 -236t-316 -89q-214 0 -302.5 83t-88.5 242zM256 727q0 -111 47 -178.5t131 -67.5q89 0 132.5 57t43.5 191q0 244 -174 244q-90 0 -135 -60t-45 -186z" />
<glyph unicode="h" horiz-adv-x="987" d="M150 0v1511l180 19v-602q51 86 112 130t148 44q118 0 187 -84.5t69 -224.5v-793h-180v768q0 104 -30 148.5t-89 44.5q-117 0 -217 -201v-760h-180z" />
<glyph unicode="i" horiz-adv-x="479" d="M117 1466q0 54 33.5 89.5t87.5 35.5q55 0 87.5 -35t32.5 -90q0 -52 -33 -86t-87 -34q-53 0 -87 34t-34 86zM150 0v1079h180v-1079h-180z" />
<glyph unicode="j" horiz-adv-x="479" d="M-27 -305q50 30 78 53t53.5 59.5t35.5 87t10 123.5v1061h180v-1059q0 -77 -13.5 -137.5t-36.5 -104.5t-62.5 -82.5t-81.5 -66.5t-105 -61zM117 1466q0 54 33.5 89.5t87.5 35.5q55 0 87.5 -35t32.5 -90q0 -52 -33 -86t-87 -34q-53 0 -87 34t-34 86z" />
<glyph unicode="k" horiz-adv-x="876" d="M150 0v1513l180 21v-1534h-180zM340 590l326 489h184l-324 -479l357 -600h-201z" />
<glyph unicode="l" horiz-adv-x="499" d="M139 188v1325l180 21v-1341q0 -68 58 -68q26 0 51 10l41 -123q-61 -37 -131 -37q-90 0 -144.5 57.5t-54.5 155.5z" />
<glyph unicode="m" horiz-adv-x="1439" d="M150 0v1079h155l12 -155q103 178 256 178q81 0 138 -50t82 -143q110 193 266 193q108 0 173.5 -85t65.5 -224v-793h-176v770q0 103 -27.5 148t-80.5 45q-109 0 -201 -193v-770h-176v770q0 193 -109 193q-113 0 -202 -193v-770h-176z" />
<glyph unicode="n" horiz-adv-x="987" d="M150 0v1079h155l14 -161q54 91 117 137.5t154 46.5q118 0 187 -84.5t69 -224.5v-793h-180v768q0 104 -30 148.5t-89 44.5q-117 0 -217 -201v-760h-180z" />
<glyph unicode="o" horiz-adv-x="993" d="M92 539q0 272 106.5 417.5t299.5 145.5t298 -142.5t105 -418.5q0 -261 -108 -413.5t-297 -152.5q-190 0 -297 150t-107 414zM283 539q0 -221 53.5 -319.5t159.5 -98.5q108 0 161.5 98.5t53.5 321.5q0 221 -53.5 318t-159.5 97q-108 0 -161.5 -97.5t-53.5 -319.5z" />
<glyph unicode="p" horiz-adv-x="999" d="M150 -434v1513h157l10 -143q103 166 269 166q157 0 239 -144.5t82 -416.5q0 -264 -90.5 -415t-257.5 -151q-140 0 -229 119v-506zM330 248q77 -125 190 -125q96 0 146.5 99t50.5 319q0 223 -43.5 320t-134.5 97q-117 0 -209 -157v-553z" />
<glyph unicode="q" horiz-adv-x="1005" d="M92 535q0 261 96.5 414t255.5 153q150 0 246 -141l10 118h156v-1513l-180 22v543q-41 -73 -103 -114.5t-139 -41.5q-161 0 -251.5 147t-90.5 413zM283 539q0 -420 190 -420q63 0 111 40.5t92 121.5v538q-84 139 -197 139q-89 0 -142.5 -101.5t-53.5 -317.5z" />
<glyph unicode="r" horiz-adv-x="661" d="M150 0v1079h155l14 -200q75 223 244 223q45 0 82 -12l-31 -175q-46 11 -73 11q-81 0 -132 -71.5t-79 -219.5v-635h-180z" />
<glyph unicode="s" horiz-adv-x="804" d="M41 117l94 100q115 -100 244 -100q83 0 131.5 45t48.5 127q0 81 -43 124t-170 89q-143 53 -204.5 125.5t-61.5 179.5q0 126 93 210.5t239 84.5q178 0 305 -121l-78 -104q-116 86 -223 86q-72 0 -114 -40t-42 -110q0 -67 41 -106t156 -80q148 -54 217 -128t69 -200 q0 -154 -103.5 -239t-256.5 -85q-203 0 -342 142z" />
<glyph unicode="t" horiz-adv-x="626" d="M20 938v141h146v244l180 23v-267h209l-18 -141h-191v-700q0 -113 96 -113q54 0 115 37l70 -113q-92 -74 -207 -74q-121 0 -187.5 71.5t-66.5 193.5v698h-146z" />
<glyph unicode="u" horiz-adv-x="980" d="M141 264v815h181v-796q0 -166 116 -166q122 0 213 182v780h180v-1079h-155l-12 152q-103 -177 -267 -177q-116 0 -186 80t-70 209z" />
<glyph unicode="v" horiz-adv-x="851" d="M20 1079h187l223 -919l221 919h180l-294 -1079h-213z" />
<glyph unicode="w" horiz-adv-x="1243" d="M41 1079h176l148 -946l155 946h211l152 -946l151 946h168l-196 -1079h-240l-145 911l-144 -911h-235z" />
<glyph unicode="x" horiz-adv-x="839" d="M10 0l305 569l-272 510h190l187 -403l186 403h185l-267 -501l305 -578h-194l-219 465l-219 -465h-187z" />
<glyph unicode="y" horiz-adv-x="856" d="M20 1079h185l225 -948l223 948h183l-295 -1085q-51 -185 -151.5 -294t-278.5 -134l-21 137q128 28 188.5 94t100.5 203h-68z" />
<glyph unicode="z" horiz-adv-x="741" d="M37 0v135l465 791h-426v153h616v-139l-465 -788h469l-18 -152h-641z" />
<glyph unicode="{" horiz-adv-x="542" d="M39 641v147q65 0 91 37t26 123v463q0 158 71.5 228.5t245.5 70.5v-133q-86 0 -121 -32.5t-35 -114.5v-494q0 -104 -33 -149t-110 -72q78 -27 111.5 -70.5t33.5 -146.5v-494q0 -83 33.5 -115t120.5 -32v-133q-172 0 -244.5 70.5t-72.5 228.5v462q0 86 -26 121t-91 35z" />
<glyph unicode="|" horiz-adv-x="665" d="M250 -209v1862h166v-1862h-166z" />
<glyph unicode="}" horiz-adv-x="542" d="M70 -143q85 0 119 32t34 115v494q0 54 8.5 91t29 61t44.5 37.5t64 27.5q-53 18 -82.5 39.5t-46.5 65.5t-17 116v494q0 81 -33.5 114t-115.5 33l-4 133q172 0 244.5 -70.5t72.5 -228.5v-463q0 -86 26 -123t91 -37v-147q-65 0 -91 -35t-26 -121v-462q0 -158 -72.5 -228.5 t-244.5 -70.5v133z" />
<glyph unicode="~" horiz-adv-x="829" d="M53 590q92 188 232 188q41 0 82.5 -18.5t69 -41t60.5 -41t60 -18.5q36 0 64 25t55 70l100 -56q-87 -178 -225 -178q-43 0 -86 19t-71 41.5t-61.5 41.5t-60.5 19q-25 0 -48.5 -18t-36 -36t-33.5 -52z" />
<glyph unicode="&#xa1;" horiz-adv-x="448" d="M92 874q0 56 36.5 96t96.5 40q58 0 94.5 -40t36.5 -96t-36.5 -95.5t-94.5 -39.5q-60 0 -96.5 39.5t-36.5 95.5zM129 -414l23 930h147l25 -930h-195z" />
<glyph unicode="&#xa2;" horiz-adv-x="800" d="M92 530q0 239 85.5 386t236.5 178v307h143v-303q114 -15 213 -111l-82 -106q-94 75 -186 75q-217 0 -217 -421q0 -219 55.5 -313.5t159.5 -94.5q52 0 93.5 18.5t92.5 57.5l84 -109q-97 -94 -213 -114v-295h-145v299q-153 28 -236.5 164.5t-83.5 381.5z" />
<glyph unicode="&#xa3;" horiz-adv-x="888" d="M63 0v143q87 38 113.5 90.5t26.5 178.5v250h-113v118h113v252q0 159 88.5 259t240.5 100q187 0 306 -168l-113 -86q-42 56 -83 82t-97 26q-82 0 -124 -53t-42 -156v-256h340v-118h-340v-252q0 -105 -25 -162t-100 -96h553l-21 -152h-723z" />
<glyph unicode="&#xa4;" horiz-adv-x="942" d="M29 1124l112 90l127 -157q85 63 197 63q117 0 205 -63l129 157l104 -94l-143 -164q63 -108 63 -258q0 -144 -57 -249l145 -175l-112 -90l-127 156q-84 -66 -207 -66q-111 0 -197 64l-127 -154l-104 95l141 163q-61 106 -61 256q0 147 59 250zM274 700q0 -147 49 -215.5 t146 -68.5t145 68.5t48 215.5q0 285 -193 285q-195 0 -195 -285z" />
<glyph unicode="&#xa5;" horiz-adv-x="911" d="M4 1370h189l266 -610l268 610h180l-319 -663h188v-123h-229v-187h229v-121h-229v-276h-182v276h-230v121h230v187h-230v123h189z" />
<glyph unicode="&#xa6;" horiz-adv-x="665" d="M250 -209v746h166v-746h-166zM250 907v746h166v-746h-166z" />
<glyph unicode="&#xa7;" horiz-adv-x="905" d="M113 639q0 73 36 138t99 110q-94 79 -94 207q0 134 92 213t229 79q170 0 297 -110l-72 -107q-110 78 -213 78q-73 0 -115 -38.5t-42 -106.5q0 -70 38.5 -111.5t163.5 -93.5q137 -57 199 -121t62 -168q0 -153 -131 -258q92 -77 92 -198q0 -134 -92 -215.5t-234 -81.5 q-175 0 -303 102l72 113q99 -74 221 -74q73 0 116.5 38t43.5 109q0 67 -38.5 104t-166.5 89q-138 56 -199 121t-61 182zM281 662q0 -76 34.5 -116.5t139.5 -82.5q45 -19 108 -49q64 76 64 170q0 65 -36.5 104t-144.5 86q-55 23 -104 51q-61 -73 -61 -163z" />
<glyph unicode="&#xa8;" horiz-adv-x="698" d="M76 1454q0 48 30.5 80.5t77.5 32.5t78 -32.5t31 -80.5t-31 -80.5t-78 -32.5t-77.5 32.5t-30.5 80.5zM434 1454q0 47 31.5 80t77.5 33q47 0 77.5 -32.5t30.5 -80.5t-30.5 -80.5t-77.5 -32.5q-46 0 -77.5 33t-31.5 80z" />
<glyph unicode="&#xa9;" horiz-adv-x="1359" d="M145 889q0 146 42 267.5t114.5 202.5t170.5 126t210 45q149 0 269 -76.5t191.5 -223.5t71.5 -341q0 -145 -41.5 -266t-113 -202t-169 -126t-208.5 -45q-112 0 -210 45t-170.5 126t-114.5 202t-42 266zM260 889q0 -248 118 -390.5t304 -142.5q185 0 302.5 142.5 t117.5 390.5q0 249 -117.5 392.5t-302.5 143.5q-186 0 -304 -143.5t-118 -392.5zM408 891q0 190 78 288.5t204 98.5q105 0 195 -80l-62 -88q-68 49 -131 49q-143 0 -143 -268q0 -262 145 -262q66 0 135 55l62 -88q-92 -92 -205 -92q-122 0 -200 100t-78 287z" />
<glyph unicode="&#xaa;" horiz-adv-x="862" d="M102 805q0 131 83.5 200.5t238.5 69.5h92v72q0 66 -32.5 96.5t-102.5 30.5q-73 0 -182 -39l-45 119q129 57 252 57q138 0 207 -67.5t69 -186.5v-393q0 -65 53 -86l-35 -121q-117 15 -155 109q-74 -111 -207 -111q-108 0 -172 69.5t-64 180.5zM111 4v146h649v-146h-649z M279 815q0 -129 100 -129q85 0 137 107v172h-88q-80 0 -114.5 -36t-34.5 -114z" />
<glyph unicode="&#xab;" horiz-adv-x="1024" d="M102 524v125l299 443l109 -70l-238 -434l238 -434l-109 -70zM514 524v125l299 443l109 -70l-238 -434l238 -434l-109 -70z" />
<glyph unicode="&#xac;" horiz-adv-x="854" d="M98 588v145h658v-438h-158v293h-500z" />
<glyph unicode="&#xad;" horiz-adv-x="694" d="M102 565v152h490v-152h-490z" />
<glyph unicode="&#xae;" horiz-adv-x="1075" d="M104 1010q0 229 124 375.5t309 146.5q188 0 311 -145t123 -375t-123 -375t-311 -145q-186 0 -309.5 144.5t-123.5 373.5zM205 1010q0 -193 93 -306.5t239 -113.5q150 0 241.5 114t91.5 308q0 195 -92 309.5t-241 114.5q-145 0 -238.5 -116.5t-93.5 -309.5zM379 737v563 h131q104 0 156.5 -44.5t52.5 -127.5q0 -115 -105 -155l123 -236h-114l-99 217h-45v-217h-100zM479 1042h51q86 0 86 86q0 84 -90 84h-47v-170z" />
<glyph unicode="&#xaf;" horiz-adv-x="589" d="M72 1370v131h467v-131h-467z" />
<glyph unicode="&#xb0;" horiz-adv-x="876" d="M88 1110q0 153 83 238.5t196 85.5q116 0 198 -85.5t82 -240.5t-82 -239.5t-198 -84.5q-114 0 -196.5 85t-82.5 241zM227 1110q0 -108 38.5 -157.5t101.5 -49.5q141 0 141 205t-141 205q-63 0 -101.5 -47.5t-38.5 -155.5z" />
<glyph unicode="&#xb1;" horiz-adv-x="851" d="M98 649v150h250v301h156v-301h250v-150h-250v-297h-156v297h-250zM100 0v145h650v-145h-650z" />
<glyph unicode="&#xb2;" horiz-adv-x="671" d="M86 1389q104 137 246 137q105 0 171 -69t66 -175q0 -69 -31.5 -138t-91.5 -146t-184 -216h324l-17 -123h-460v115q198 228 255.5 318t57.5 186q0 60 -28 93.5t-79 33.5q-41 0 -74.5 -20.5t-70.5 -63.5z" />
<glyph unicode="&#xb3;" horiz-adv-x="671" d="M80 764l80 72q75 -78 157 -78q56 0 90.5 40.5t34.5 110.5q0 75 -33.5 108.5t-97.5 33.5h-59l16 110h41q53 0 85 34t32 97q0 59 -29.5 92t-81.5 33q-71 0 -149 -69l-70 73q101 107 236 107q112 0 173.5 -62.5t61.5 -160.5q0 -155 -157 -193q83 -8 132.5 -60.5t49.5 -148.5 q0 -113 -72.5 -187.5t-197.5 -74.5q-147 0 -242 123z" />
<glyph unicode="&#xb4;" horiz-adv-x="540" d="M72 1399l338 229l79 -143l-364 -176z" />
<glyph unicode="&#xb5;" horiz-adv-x="987" d="M150 -434v1513h180v-762q0 -186 123 -186q122 0 198 197v751h180v-710q0 -204 43 -369l-165 -25q-29 79 -43 201q-41 -87 -98.5 -144t-129.5 -57q-99 0 -151 107q37 -115 37 -275v-221z" />
<glyph unicode="&#xb6;" horiz-adv-x="1255" d="M141 997q0 197 111.5 305.5t310.5 108.5h467v-1823l-160 -26v1706h-186v-1680l-160 -26v1018q-191 10 -287 123.5t-96 293.5z" />
<glyph unicode="&#xb7;" horiz-adv-x="428" d="M82 635q0 56 36.5 95.5t94.5 39.5q60 0 96.5 -39.5t36.5 -95.5t-36.5 -95.5t-96.5 -39.5q-58 0 -94.5 39.5t-36.5 95.5z" />
<glyph unicode="&#xb8;" horiz-adv-x="499" d="M72 -442l51 94q55 -25 100 -25q37 0 60.5 20t23.5 58q0 47 -35.5 69.5t-115.5 22.5l24 236h109v-156q160 -23 160 -172q0 -92 -60 -143t-156 -51q-95 0 -161 47z" />
<glyph unicode="&#xb9;" horiz-adv-x="671" d="M100 1343l240 170h129v-854h-141v703l-158 -113z" />
<glyph unicode="&#xba;" horiz-adv-x="849" d="M92 983q0 203 88.5 315.5t245.5 112.5q158 0 245 -109.5t87 -318.5q0 -202 -87.5 -315t-244.5 -113q-159 0 -246.5 110t-87.5 318zM100 0v145h650v-145h-650zM266 983q0 -161 39 -227t121 -66q81 0 119.5 66t38.5 227q0 162 -38 227.5t-120 65.5t-121 -66t-39 -227z" />
<glyph unicode="&#xbb;" horiz-adv-x="1024" d="M102 154l238 434l-238 434l109 70l299 -443v-125l-299 -440zM514 154l238 434l-238 434l109 70l299 -443v-125l-299 -440z" />
<glyph unicode="&#xbc;" horiz-adv-x="1579" d="M100 1241l240 170h129v-854h-141v703l-158 -113zM391 -109l682 1645l115 -49l-680 -1645zM971 199v106l211 563l123 -49l-191 -504h174l19 220h118v-220h88v-116h-88v-199h-139v199h-315z" />
<glyph unicode="&#xbd;" horiz-adv-x="1579" d="M100 1241l240 170h129v-854h-141v703l-158 -113zM391 -109l682 1645l115 -49l-680 -1645zM993 729q104 137 246 137q105 0 171.5 -68.5t66.5 -174.5q0 -100 -63 -198t-245 -302h324l-16 -123h-461v115q198 229 255.5 318t57.5 185q0 60 -27.5 93.5t-78.5 33.5 q-75 0 -146 -83z" />
<glyph unicode="&#xbe;" horiz-adv-x="1579" d="M80 662l80 71q75 -78 157 -78q56 0 90.5 41t34.5 111q0 75 -33.5 108t-97.5 33h-59l16 111h41q53 0 85 34t32 97q0 59 -29.5 92t-81.5 33q-70 0 -149 -70l-70 74q100 106 236 106q112 0 173.5 -62.5t61.5 -160.5q0 -154 -157 -192q83 -8 132.5 -60.5t49.5 -148.5 q0 -113 -72.5 -187.5t-197.5 -74.5q-147 0 -242 123zM391 -109l682 1645l115 -49l-680 -1645zM971 199v106l211 563l123 -49l-191 -504h174l19 220h118v-220h88v-116h-88v-199h-139v199h-315z" />
<glyph unicode="&#xbf;" horiz-adv-x="804" d="M57 -127q0 63 17 114t43.5 85.5t59.5 64t65.5 58t59 59.5t43.5 75t17 99v78h173v-88q0 -68 -16.5 -122t-42.5 -89.5t-57 -65.5t-62.5 -56.5t-57.5 -54.5t-42.5 -68t-16.5 -89q0 -79 44.5 -123.5t121.5 -44.5q65 0 119.5 33t111.5 106l111 -86q-137 -200 -353 -200 q-160 0 -249 92.5t-89 222.5zM311 872q0 56 36.5 96t96.5 40q58 0 94.5 -40t36.5 -96t-36.5 -95.5t-94.5 -39.5q-60 0 -96.5 39.5t-36.5 95.5z" />
<glyph unicode="&#xc0;" d="M16 0l367 1411h231l367 -1411h-190l-84 358h-422l-84 -358h-185zM279 1708l73 152l344 -215l-47 -99zM319 508h353l-176 747z" />
<glyph unicode="&#xc1;" d="M16 0l367 1411h231l367 -1411h-190l-84 358h-422l-84 -358h-185zM291 1645l342 215l76 -152l-371 -162zM319 508h353l-176 747z" />
<glyph unicode="&#xc2;" d="M16 0l367 1411h231l367 -1411h-190l-84 358h-422l-84 -358h-185zM211 1636l229 230h115l229 -230l-73 -77l-213 163l-215 -163zM319 508h353l-176 747z" />
<glyph unicode="&#xc3;" d="M16 0l367 1411h231l367 -1411h-190l-84 358h-422l-84 -358h-185zM213 1657q30 81 77 127.5t107 46.5q39 0 76.5 -22.5t68.5 -45t56 -22.5t45.5 20.5t44.5 67.5l100 -45q-60 -172 -184 -172q-39 0 -77 22.5t-69 45t-55 22.5q-27 0 -46.5 -21.5t-45.5 -70.5zM319 508h353 l-176 747z" />
<glyph unicode="&#xc4;" d="M16 0l367 1411h231l367 -1411h-190l-84 358h-422l-84 -358h-185zM225 1712q0 48 31 80.5t78 32.5t77.5 -32.5t30.5 -80.5t-30.5 -80.5t-77.5 -32.5t-78 32.5t-31 80.5zM319 508h353l-176 747zM584 1712q0 47 31 80t77 33q47 0 78 -32.5t31 -80.5t-31 -80.5t-78 -32.5 q-46 0 -77 33t-31 80z" />
<glyph unicode="&#xc5;" d="M16 0l367 1411h231l367 -1411h-190l-84 358h-422l-84 -358h-185zM299 1753q0 99 54.5 156t146.5 57q91 0 145.5 -57t54.5 -156q0 -100 -54 -157.5t-146 -57.5t-146.5 57.5t-54.5 157.5zM319 508h353l-176 747zM412 1753q0 -121 88 -121t88 121q0 119 -88 119t-88 -119z " />
<glyph unicode="&#xc6;" horiz-adv-x="1380" d="M-23 0l459 1411h795l-21 -149h-501l88 -471h420v-150h-392l93 -491h382v-150h-536l-64 356h-430l-106 -356h-187zM315 506h361l-133 756z" />
<glyph unicode="&#xc7;" horiz-adv-x="954" d="M92 707q0 184 38.5 325.5t107 228t156.5 130t192 43.5q99 0 174.5 -34t152.5 -104l-96 -112q-110 98 -227 98q-301 0 -301 -575q0 -574 307 -574q48 0 94 18t72.5 37t62.5 52l101 -109q-118 -135 -285 -154v-100q160 -23 160 -172q0 -92 -59.5 -143t-155.5 -51t-162 47 l51 94q55 -25 100 -25q37 0 60.5 20t23.5 58q0 47 -35.5 69.5t-115.5 22.5l18 183q-200 26 -317 209t-117 518z" />
<glyph unicode="&#xc8;" horiz-adv-x="890" d="M156 0v1411h647l-21 -149h-440v-469h383v-150h-383v-493h469v-150h-655zM262 1708l74 152l344 -215l-47 -99z" />
<glyph unicode="&#xc9;" horiz-adv-x="890" d="M156 0v1411h647l-21 -149h-440v-469h383v-150h-383v-493h469v-150h-655zM274 1645l342 215l76 -152l-370 -162z" />
<glyph unicode="&#xca;" horiz-adv-x="890" d="M156 0v1411h647l-21 -149h-440v-469h383v-150h-383v-493h469v-150h-655zM195 1636l229 230h115l229 -230l-74 -77l-213 163l-215 -163z" />
<glyph unicode="&#xcb;" horiz-adv-x="890" d="M156 0v1411h647l-21 -149h-440v-469h383v-150h-383v-493h469v-150h-655zM209 1712q0 48 30.5 80.5t77.5 32.5t78 -32.5t31 -80.5t-31 -80.5t-78 -32.5t-77.5 32.5t-30.5 80.5zM567 1712q0 47 31.5 80t77.5 33q47 0 77.5 -32.5t30.5 -80.5t-30.5 -80.5t-77.5 -32.5 q-46 0 -77.5 33t-31.5 80z" />
<glyph unicode="&#xcc;" horiz-adv-x="497" d="M27 1708l73 152l344 -215l-47 -99zM156 0v1411h186v-1411h-186z" />
<glyph unicode="&#xcd;" horiz-adv-x="497" d="M39 1645l342 215l76 -152l-371 -162zM156 0v1411h186v-1411h-186z" />
<glyph unicode="&#xce;" horiz-adv-x="497" d="M-41 1636l229 230h115l229 -230l-73 -77l-213 163l-215 -163zM156 0v1411h186v-1411h-186z" />
<glyph unicode="&#xcf;" horiz-adv-x="497" d="M-27 1712q0 48 31 80.5t78 32.5t77.5 -32.5t30.5 -80.5t-30.5 -80.5t-77.5 -32.5t-78 32.5t-31 80.5zM156 0v1411h186v-1411h-186zM332 1712q0 47 31 80t77 33q47 0 78 -32.5t31 -80.5t-31 -80.5t-78 -32.5q-46 0 -77 33t-31 80z" />
<glyph unicode="&#xd0;" horiz-adv-x="1124" d="M41 653v140h145v618h265q69 0 127 -7t119.5 -27t109 -52.5t91 -86.5t72 -126t45.5 -173t17 -226q0 -122 -17 -223.5t-45.5 -174t-70.5 -128.5t-89 -91t-103.5 -57t-111 -30.5t-114.5 -8.5h-295v653h-145zM373 147h121q59 0 105.5 12.5t93 49t77 97.5t49.5 164.5t19 242.5 q0 120 -13 211.5t-39 150t-56.5 97t-73.5 57.5t-81.5 26t-89.5 7h-112v-469h231v-140h-231v-506z" />
<glyph unicode="&#xd1;" horiz-adv-x="1140" d="M156 0v1411h247l435 -1204q-7 32 -17 169t-10 255v780h174v-1411h-248l-434 1202q27 -311 27 -538v-664h-174zM299 1657q30 81 77 127.5t107 46.5q39 0 76.5 -22.5t68.5 -45t56 -22.5t45.5 20.5t44.5 67.5l100 -45q-60 -172 -184 -172q-39 0 -77 22.5t-69 45t-55 22.5 q-27 0 -46.5 -21.5t-45.5 -70.5z" />
<glyph unicode="&#xd2;" horiz-adv-x="1177" d="M92 702q0 362 133 547t365 185q233 0 364 -180.5t131 -548.5q0 -364 -131 -547t-364 -183t-365.5 180.5t-132.5 546.5zM289 702q0 -158 21 -270.5t61.5 -178t94 -95t124.5 -29.5q72 0 125.5 29.5t93.5 96t60 179t20 271.5q0 209 -36.5 339t-101 184t-161.5 54 q-72 0 -126 -30.5t-94 -97.5t-60.5 -180.5t-20.5 -271.5zM369 1708l73 152l344 -215l-47 -99z" />
<glyph unicode="&#xd3;" horiz-adv-x="1177" d="M92 702q0 362 133 547t365 185q233 0 364 -180.5t131 -548.5q0 -364 -131 -547t-364 -183t-365.5 180.5t-132.5 546.5zM289 702q0 -158 21 -270.5t61.5 -178t94 -95t124.5 -29.5q72 0 125.5 29.5t93.5 96t60 179t20 271.5q0 209 -36.5 339t-101 184t-161.5 54 q-72 0 -126 -30.5t-94 -97.5t-60.5 -180.5t-20.5 -271.5zM381 1645l342 215l76 -152l-371 -162z" />
<glyph unicode="&#xd4;" horiz-adv-x="1177" d="M92 702q0 362 133 547t365 185q233 0 364 -180.5t131 -548.5q0 -364 -131 -547t-364 -183t-365.5 180.5t-132.5 546.5zM289 702q0 -158 21 -270.5t61.5 -178t94 -95t124.5 -29.5q72 0 125.5 29.5t93.5 96t60 179t20 271.5q0 209 -36.5 339t-101 184t-161.5 54 q-72 0 -126 -30.5t-94 -97.5t-60.5 -180.5t-20.5 -271.5zM301 1636l229 230h115l229 -230l-73 -77l-213 163l-215 -163z" />
<glyph unicode="&#xd5;" horiz-adv-x="1177" d="M92 702q0 362 133 547t365 185q233 0 364 -180.5t131 -548.5q0 -364 -131 -547t-364 -183t-365.5 180.5t-132.5 546.5zM289 702q0 -158 21 -270.5t61.5 -178t94 -95t124.5 -29.5q72 0 125.5 29.5t93.5 96t60 179t20 271.5q0 209 -36.5 339t-101 184t-161.5 54 q-72 0 -126 -30.5t-94 -97.5t-60.5 -180.5t-20.5 -271.5zM303 1657q30 81 77 127.5t107 46.5q39 0 76.5 -22.5t68.5 -45t56 -22.5t45.5 20.5t44.5 67.5l101 -45q-60 -172 -185 -172q-39 0 -76.5 22.5t-68.5 45t-55 22.5q-27 0 -47 -21.5t-46 -70.5z" />
<glyph unicode="&#xd6;" horiz-adv-x="1177" d="M92 702q0 362 133 547t365 185q233 0 364 -180.5t131 -548.5q0 -364 -131 -547t-364 -183t-365.5 180.5t-132.5 546.5zM289 702q0 -158 21 -270.5t61.5 -178t94 -95t124.5 -29.5q72 0 125.5 29.5t93.5 96t60 179t20 271.5q0 209 -36.5 339t-101 184t-161.5 54 q-72 0 -126 -30.5t-94 -97.5t-60.5 -180.5t-20.5 -271.5zM315 1712q0 48 31 80.5t78 32.5t77.5 -32.5t30.5 -80.5t-30.5 -80.5t-77.5 -32.5t-78 32.5t-31 80.5zM674 1712q0 47 31 80t77 33q47 0 78 -32.5t31 -80.5t-31 -80.5t-78 -32.5q-46 0 -77 33t-31 80z" />
<glyph unicode="&#xd7;" horiz-adv-x="845" d="M104 356l213 273l-213 272l115 90l203 -266l205 266l114 -90l-215 -272l215 -273l-114 -88l-205 262l-203 -262z" />
<glyph unicode="&#xd8;" horiz-adv-x="1177" d="M92 702q0 362 133 547t365 185q42 0 102 -11l62 252l147 -39l-67 -266q251 -159 251 -665q0 -364 -131 -547t-364 -183q-43 0 -107 11l-57 -244l-150 39l68 260q-252 156 -252 661zM285 702q0 -388 127 -509l256 1081q-33 8 -78 8q-73 0 -128 -30.5t-95.5 -97.5t-61 -180 t-20.5 -272zM510 137q36 -8 80 -8q98 0 161.5 53t99.5 182t38 341q3 399 -123 516z" />
<glyph unicode="&#xd9;" horiz-adv-x="1101" d="M135 379v1032h187v-1018q0 -260 229 -260t229 260v1018h187v-1032q0 -114 -46.5 -204t-142 -145t-227.5 -55q-134 0 -229.5 55t-141 145t-45.5 204zM330 1708l73 152l345 -215l-48 -99z" />
<glyph unicode="&#xda;" horiz-adv-x="1101" d="M135 379v1032h187v-1018q0 -260 229 -260t229 260v1018h187v-1032q0 -114 -46.5 -204t-142 -145t-227.5 -55q-134 0 -229.5 55t-141 145t-45.5 204zM342 1645l342 215l76 -152l-371 -162z" />
<glyph unicode="&#xdb;" horiz-adv-x="1101" d="M135 379v1032h187v-1018q0 -260 229 -260t229 260v1018h187v-1032q0 -114 -46.5 -204t-142 -145t-227.5 -55q-134 0 -229.5 55t-141 145t-45.5 204zM262 1636l230 230h114l230 -230l-74 -77l-213 163l-215 -163z" />
<glyph unicode="&#xdc;" horiz-adv-x="1101" d="M135 379v1032h187v-1018q0 -260 229 -260t229 260v1018h187v-1032q0 -114 -46.5 -204t-142 -145t-227.5 -55q-134 0 -229.5 55t-141 145t-45.5 204zM276 1712q0 48 31 80.5t78 32.5t78 -32.5t31 -80.5t-31 -80.5t-78 -32.5t-78 32.5t-31 80.5zM635 1712q0 47 31 80t77 33 q47 0 78 -32.5t31 -80.5t-31 -80.5t-78 -32.5q-46 0 -77 33t-31 80z" />
<glyph unicode="&#xdd;" horiz-adv-x="940" d="M4 1411h199l272 -704l270 704h191l-373 -868v-543h-186v541zM260 1645l342 215l76 -152l-371 -162z" />
<glyph unicode="&#xde;" horiz-adv-x="974" d="M156 0v1411h186v-244h94q246 0 372 -111t126 -331q0 -236 -128.5 -349.5t-361.5 -113.5h-102v-262h-186zM342 410h92q158 0 231.5 69t73.5 244q0 156 -74.5 227.5t-230.5 71.5h-92v-612z" />
<glyph unicode="&#xdf;" horiz-adv-x="1003" d="M150 0v1165q0 164 96 266.5t256 102.5q140 0 225.5 -82.5t85.5 -202.5q0 -63 -18.5 -113.5t-45.5 -82.5t-54 -59t-45.5 -57t-18.5 -63q0 -32 17.5 -63t45 -57.5t61 -55.5t67.5 -64.5t61.5 -76.5t45 -100t17.5 -127q0 -160 -89 -257.5t-218 -97.5q-104 0 -178 48l55 120 q55 -22 102 -22q66 0 106 54.5t40 156.5q0 56 -16.5 104t-42.5 83t-57.5 67t-62.5 62t-57 60.5t-42.5 70.5t-16.5 85q0 44 18 81.5t44 66.5t52 59.5t44 74t18 95.5q0 72 -40 112t-105 40q-81 0 -125.5 -60t-44.5 -168v-1165h-180z" />
<glyph unicode="&#xe0;" horiz-adv-x="923" d="M72 301q0 172 106 263t309 91h107v99q0 107 -42 155.5t-130 48.5q-106 0 -244 -55l-45 127q167 72 311 72q166 0 247 -89t81 -251v-533q0 -57 17 -85t53 -44l-39 -125q-76 13 -120 48.5t-62 107.5q-87 -156 -259 -156q-134 0 -212 89t-78 237zM250 1485l80 143l338 -229 l-54 -90zM258 309q0 -99 36.5 -148.5t104.5 -49.5q128 0 195 172v252h-86q-128 0 -189 -55.5t-61 -170.5z" />
<glyph unicode="&#xe1;" horiz-adv-x="923" d="M72 301q0 172 106 263t309 91h107v99q0 107 -42 155.5t-130 48.5q-106 0 -244 -55l-45 127q167 72 311 72q166 0 247 -89t81 -251v-533q0 -57 17 -85t53 -44l-39 -125q-76 13 -120 48.5t-62 107.5q-87 -156 -259 -156q-134 0 -212 89t-78 237zM229 1399l338 229l80 -143 l-364 -176zM258 309q0 -99 36.5 -148.5t104.5 -49.5q128 0 195 172v252h-86q-128 0 -189 -55.5t-61 -170.5z" />
<glyph unicode="&#xe2;" horiz-adv-x="923" d="M72 301q0 172 106 263t309 91h107v99q0 107 -42 155.5t-130 48.5q-106 0 -244 -55l-45 127q167 72 311 72q166 0 247 -89t81 -251v-533q0 -57 17 -85t53 -44l-39 -125q-76 13 -120 48.5t-62 107.5q-87 -156 -259 -156q-134 0 -212 89t-78 237zM156 1382l229 238h115 l229 -238l-74 -77l-213 172l-215 -172zM258 309q0 -99 36.5 -148.5t104.5 -49.5q128 0 195 172v252h-86q-128 0 -189 -55.5t-61 -170.5z" />
<glyph unicode="&#xe3;" horiz-adv-x="923" d="M72 301q0 172 106 263t309 91h107v99q0 107 -42 155.5t-130 48.5q-106 0 -244 -55l-45 127q167 72 311 72q166 0 247 -89t81 -251v-533q0 -57 17 -85t53 -44l-39 -125q-76 13 -120 48.5t-62 107.5q-87 -156 -259 -156q-134 0 -212 89t-78 237zM156 1399q30 81 77 127.5 t107 46.5q39 0 76.5 -22.5t68.5 -45t56 -22.5t45.5 20.5t44.5 67.5l100 -45q-60 -172 -184 -172q-39 0 -77 22.5t-69 45t-55 22.5q-27 0 -46.5 -21.5t-45.5 -70.5zM258 309q0 -99 36.5 -148.5t104.5 -49.5q128 0 195 172v252h-86q-128 0 -189 -55.5t-61 -170.5z" />
<glyph unicode="&#xe4;" horiz-adv-x="923" d="M72 301q0 172 106 263t309 91h107v99q0 107 -42 155.5t-130 48.5q-106 0 -244 -55l-45 127q167 72 311 72q166 0 247 -89t81 -251v-533q0 -57 17 -85t53 -44l-39 -125q-76 13 -120 48.5t-62 107.5q-87 -156 -259 -156q-134 0 -212 89t-78 237zM154 1454q0 48 30.5 80.5 t77.5 32.5t78 -32.5t31 -80.5t-31 -80.5t-78 -32.5t-77.5 32.5t-30.5 80.5zM258 309q0 -99 36.5 -148.5t104.5 -49.5q128 0 195 172v252h-86q-128 0 -189 -55.5t-61 -170.5zM512 1454q0 47 31.5 80t77.5 33q47 0 77.5 -32.5t30.5 -80.5t-30.5 -80.5t-77.5 -32.5 q-46 0 -77.5 33t-31.5 80z" />
<glyph unicode="&#xe5;" horiz-adv-x="923" d="M72 301q0 172 106 263t309 91h107v99q0 107 -42 155.5t-130 48.5q-106 0 -244 -55l-45 127q167 72 311 72q166 0 247 -89t81 -251v-533q0 -57 17 -85t53 -44l-39 -125q-76 13 -120 48.5t-62 107.5q-87 -156 -259 -156q-134 0 -212 89t-78 237zM242 1495q0 99 54.5 156 t145.5 57q92 0 146.5 -57t54.5 -156q0 -100 -54.5 -157.5t-146.5 -57.5t-146 57.5t-54 157.5zM258 309q0 -99 36.5 -148.5t104.5 -49.5q128 0 195 172v252h-86q-128 0 -189 -55.5t-61 -170.5zM354 1495q0 -121 88 -121t88 121q0 119 -88 119t-88 -119z" />
<glyph unicode="&#xe6;" horiz-adv-x="1437" d="M72 301q0 171 110 262.5t312 91.5h106v84q0 116 -42.5 167.5t-135.5 51.5q-99 0 -238 -57l-43 129q167 72 312 72q193 0 264 -164q101 164 280 164q170 0 264.5 -136.5t94.5 -394.5q0 -44 -4 -94h-566q9 -183 71 -268.5t163 -85.5q114 0 223 90l80 -102 q-142 -136 -317 -136q-225 0 -330 197q-60 -104 -135 -150.5t-170 -46.5q-136 0 -217.5 90t-81.5 236zM262 309q0 -96 38 -147t108 -51q67 0 119 47t98 149q-25 98 -25 219v9h-86q-252 0 -252 -226zM786 610h392v15q0 175 -45.5 255.5t-139.5 80.5q-193 0 -207 -351z" />
<glyph unicode="&#xe7;" horiz-adv-x="800" d="M92 530q0 271 108.5 421.5t295.5 150.5q156 0 274 -115l-82 -106q-94 75 -186 75q-217 0 -217 -421q0 -219 55.5 -313.5t159.5 -94.5q52 0 93.5 18.5t92.5 57.5l84 -109q-109 -105 -240 -117v-100q160 -23 160 -172q0 -92 -59.5 -143t-155.5 -51t-162 47l52 94 q55 -25 100 -25q37 0 60.5 20t23.5 58q0 47 -36 69.5t-116 22.5l19 185q-155 29 -239.5 165.5t-84.5 382.5z" />
<glyph unicode="&#xe8;" horiz-adv-x="929" d="M92 528q0 269 102 421.5t285 152.5q179 0 274 -134.5t95 -396.5q0 -44 -4 -94h-565q7 -194 64 -274t161 -80q67 0 120.5 21.5t110.5 68.5l80 -109q-135 -129 -317 -129q-192 0 -299 142.5t-107 410.5zM279 610h395v15q0 176 -47.5 256t-147.5 80q-91 0 -142 -81.5 t-58 -269.5zM285 1485l80 143l337 -229l-53 -90z" />
<glyph unicode="&#xe9;" horiz-adv-x="929" d="M92 528q0 269 102 421.5t285 152.5q179 0 274 -134.5t95 -396.5q0 -44 -4 -94h-565q7 -194 64 -274t161 -80q67 0 120.5 21.5t110.5 68.5l80 -109q-135 -129 -317 -129q-192 0 -299 142.5t-107 410.5zM264 1399l338 229l80 -143l-365 -176zM279 610h395v15 q0 176 -47.5 256t-147.5 80q-91 0 -142 -81.5t-58 -269.5z" />
<glyph unicode="&#xea;" horiz-adv-x="929" d="M92 528q0 269 102 421.5t285 152.5q179 0 274 -134.5t95 -396.5q0 -44 -4 -94h-565q7 -194 64 -274t161 -80q67 0 120.5 21.5t110.5 68.5l80 -109q-135 -129 -317 -129q-192 0 -299 142.5t-107 410.5zM190 1382l230 238h115l229 -238l-74 -77l-213 172l-215 -172z M279 610h395v15q0 176 -47.5 256t-147.5 80q-91 0 -142 -81.5t-58 -269.5z" />
<glyph unicode="&#xeb;" horiz-adv-x="929" d="M92 528q0 269 102 421.5t285 152.5q179 0 274 -134.5t95 -396.5q0 -44 -4 -94h-565q7 -194 64 -274t161 -80q67 0 120.5 21.5t110.5 68.5l80 -109q-135 -129 -317 -129q-192 0 -299 142.5t-107 410.5zM188 1454q0 48 31 80.5t78 32.5t78 -32.5t31 -80.5t-31 -80.5 t-78 -32.5t-78 32.5t-31 80.5zM279 610h395v15q0 176 -47.5 256t-147.5 80q-91 0 -142 -81.5t-58 -269.5zM547 1454q0 47 31 80t77 33q47 0 78 -32.5t31 -80.5t-31 -80.5t-78 -32.5q-46 0 -77 33t-31 80z" />
<glyph unicode="&#xec;" horiz-adv-x="479" d="M47 1485l80 143l338 -229l-53 -90zM150 0v1079h180v-1079h-180z" />
<glyph unicode="&#xed;" horiz-adv-x="479" d="M27 1399l338 229l79 -143l-364 -176zM150 0v1079h180v-1079h-180z" />
<glyph unicode="&#xee;" horiz-adv-x="479" d="M-47 1382l229 238h115l229 -238l-73 -77l-213 172l-215 -172zM150 0v1079h180v-1079h-180z" />
<glyph unicode="&#xef;" horiz-adv-x="479" d="M-49 1454q0 48 30.5 80.5t77.5 32.5t78 -32.5t31 -80.5t-31 -80.5t-78 -32.5t-77.5 32.5t-30.5 80.5zM150 0v1079h180v-1079h-180zM309 1454q0 47 31.5 80t77.5 33q47 0 77.5 -32.5t30.5 -80.5t-30.5 -80.5t-77.5 -32.5q-46 0 -77.5 33t-31.5 80z" />
<glyph unicode="&#xf0;" horiz-adv-x="974" d="M92 481q0 214 92.5 352t247.5 138q147 0 242 -121q-22 133 -67 229.5t-126 173.5l-125 -151l-120 63l137 164q-88 46 -185 72l33 133q137 -35 252 -98l121 149l111 -80l-119 -147q155 -134 220.5 -329.5t65.5 -481.5q0 -274 -106.5 -423t-290.5 -149q-171 0 -277 129.5 t-106 376.5zM274 487q0 -189 53 -278.5t148 -89.5q102 0 158.5 105t56.5 325q0 45 -4 123q-82 157 -217 157q-195 0 -195 -342z" />
<glyph unicode="&#xf1;" horiz-adv-x="987" d="M150 0v1079h155l14 -161q54 91 117 137.5t154 46.5q118 0 187 -84.5t69 -224.5v-793h-180v768q0 104 -30 148.5t-89 44.5q-117 0 -217 -201v-760h-180zM215 1399q30 81 77 127.5t107 46.5q39 0 76.5 -22.5t68.5 -45t56 -22.5t45.5 20.5t44.5 67.5l101 -45 q-60 -172 -185 -172q-39 0 -76.5 22.5t-68.5 45t-55 22.5q-27 0 -47 -21.5t-46 -70.5z" />
<glyph unicode="&#xf2;" horiz-adv-x="993" d="M92 539q0 272 106.5 417.5t299.5 145.5t298 -142.5t105 -418.5q0 -261 -108 -413.5t-297 -152.5q-190 0 -297 150t-107 414zM283 539q0 -221 53.5 -319.5t159.5 -98.5q108 0 161.5 98.5t53.5 321.5q0 221 -53.5 318t-159.5 97q-108 0 -161.5 -97.5t-53.5 -319.5z M303 1485l80 143l338 -229l-53 -90z" />
<glyph unicode="&#xf3;" horiz-adv-x="993" d="M92 539q0 272 106.5 417.5t299.5 145.5t298 -142.5t105 -418.5q0 -261 -108 -413.5t-297 -152.5q-190 0 -297 150t-107 414zM283 539q0 -221 53.5 -319.5t159.5 -98.5q108 0 161.5 98.5t53.5 321.5q0 221 -53.5 318t-159.5 97q-108 0 -161.5 -97.5t-53.5 -319.5z M283 1399l338 229l79 -143l-364 -176z" />
<glyph unicode="&#xf4;" horiz-adv-x="993" d="M92 539q0 272 106.5 417.5t299.5 145.5t298 -142.5t105 -418.5q0 -261 -108 -413.5t-297 -152.5q-190 0 -297 150t-107 414zM209 1382l229 238h115l229 -238l-73 -77l-213 172l-215 -172zM283 539q0 -221 53.5 -319.5t159.5 -98.5q108 0 161.5 98.5t53.5 321.5 q0 221 -53.5 318t-159.5 97q-108 0 -161.5 -97.5t-53.5 -319.5z" />
<glyph unicode="&#xf5;" horiz-adv-x="993" d="M92 539q0 272 106.5 417.5t299.5 145.5t298 -142.5t105 -418.5q0 -261 -108 -413.5t-297 -152.5q-190 0 -297 150t-107 414zM209 1399q30 81 77 127.5t107 46.5q39 0 76.5 -22.5t68.5 -45t56 -22.5t45.5 20.5t44.5 67.5l100 -45q-60 -172 -184 -172q-39 0 -77 22.5 t-69 45t-55 22.5q-27 0 -46.5 -21.5t-45.5 -70.5zM283 539q0 -221 53.5 -319.5t159.5 -98.5q108 0 161.5 98.5t53.5 321.5q0 221 -53.5 318t-159.5 97q-108 0 -161.5 -97.5t-53.5 -319.5z" />
<glyph unicode="&#xf6;" horiz-adv-x="993" d="M92 539q0 272 106.5 417.5t299.5 145.5t298 -142.5t105 -418.5q0 -261 -108 -413.5t-297 -152.5q-190 0 -297 150t-107 414zM207 1454q0 48 30.5 80.5t77.5 32.5t78 -32.5t31 -80.5t-31 -80.5t-78 -32.5t-77.5 32.5t-30.5 80.5zM283 539q0 -221 53.5 -319.5t159.5 -98.5 q108 0 161.5 98.5t53.5 321.5q0 221 -53.5 318t-159.5 97q-108 0 -161.5 -97.5t-53.5 -319.5zM565 1454q0 47 31.5 80t77.5 33q47 0 77.5 -32.5t30.5 -80.5t-30.5 -80.5t-77.5 -32.5q-46 0 -77.5 33t-31.5 80z" />
<glyph unicode="&#xf7;" horiz-adv-x="845" d="M98 608v146h650v-146h-650zM291 213q0 56 36.5 95.5t94.5 39.5q60 0 96.5 -39.5t36.5 -95.5t-36.5 -95.5t-96.5 -39.5q-58 0 -94.5 39.5t-36.5 95.5zM291 1143q0 56 36.5 95.5t94.5 39.5q60 0 96.5 -39.5t36.5 -95.5t-36.5 -95.5t-96.5 -39.5q-58 0 -94.5 39.5 t-36.5 95.5z" />
<glyph unicode="&#xf8;" horiz-adv-x="993" d="M92 539q0 272 106.5 417.5t299.5 145.5q42 0 80 -6l65 245l139 -41l-73 -258q192 -126 192 -501q0 -261 -108 -413.5t-297 -152.5q-40 0 -80 9l-64 -248l-141 39l76 262q-94 66 -144.5 194.5t-50.5 307.5zM276 539q0 -269 74 -361l201 774q-24 6 -53 6q-112 0 -167 -97.5 t-55 -321.5zM446 123q28 -4 50 -4q112 0 166.5 98.5t54.5 323.5q0 270 -76 358z" />
<glyph unicode="&#xf9;" horiz-adv-x="980" d="M141 264v815h181v-796q0 -166 116 -166q122 0 213 182v780h180v-1079h-155l-12 152q-103 -177 -267 -177q-116 0 -186 80t-70 209zM295 1485l80 143l338 -229l-54 -90z" />
<glyph unicode="&#xfa;" horiz-adv-x="980" d="M141 264v815h181v-796q0 -166 116 -166q122 0 213 182v780h180v-1079h-155l-12 152q-103 -177 -267 -177q-116 0 -186 80t-70 209zM274 1399l338 229l80 -143l-364 -176z" />
<glyph unicode="&#xfb;" horiz-adv-x="980" d="M141 264v815h181v-796q0 -166 116 -166q122 0 213 182v780h180v-1079h-155l-12 152q-103 -177 -267 -177q-116 0 -186 80t-70 209zM201 1382l229 238h115l229 -238l-74 -77l-213 172l-215 -172z" />
<glyph unicode="&#xfc;" horiz-adv-x="980" d="M141 264v815h181v-796q0 -166 116 -166q122 0 213 182v780h180v-1079h-155l-12 152q-103 -177 -267 -177q-116 0 -186 80t-70 209zM199 1454q0 48 30.5 80.5t77.5 32.5t78 -32.5t31 -80.5t-31 -80.5t-78 -32.5t-77.5 32.5t-30.5 80.5zM557 1454q0 47 31.5 80t77.5 33 q47 0 77.5 -32.5t30.5 -80.5t-30.5 -80.5t-77.5 -32.5q-46 0 -77.5 33t-31.5 80z" />
<glyph unicode="&#xfd;" horiz-adv-x="856" d="M20 1079h185l225 -948l223 948h183l-295 -1085q-51 -185 -151.5 -294t-278.5 -134l-21 137q128 28 188.5 94t100.5 203h-68zM215 1399l338 229l80 -143l-365 -176z" />
<glyph unicode="&#xfe;" horiz-adv-x="999" d="M150 -434v1947l180 21v-586q97 154 256 154q157 0 239 -144.5t82 -416.5q0 -264 -90.5 -415t-257.5 -151q-143 0 -229 127v-508zM330 248q77 -125 190 -125q96 0 146.5 99t50.5 319q0 223 -43.5 320t-136.5 97q-115 0 -207 -157v-553z" />
<glyph unicode="&#xff;" horiz-adv-x="856" d="M20 1079h185l225 -948l223 948h183l-295 -1085q-51 -185 -151.5 -294t-278.5 -134l-21 137q128 28 188.5 94t100.5 203h-68zM139 1454q0 48 31 80.5t78 32.5t77.5 -32.5t30.5 -80.5t-30.5 -80.5t-77.5 -32.5t-78 32.5t-31 80.5zM498 1454q0 47 31 80t77 33q47 0 78 -32.5 t31 -80.5t-31 -80.5t-78 -32.5q-46 0 -77 33t-31 80z" />
<glyph unicode="&#x152;" horiz-adv-x="1513" d="M92 702q0 350 130.5 541t342.5 191q64 0 131 -23h727l-20 -149h-512q142 -154 160 -467h295v-154h-295q-12 -310 -166 -491h549v-150h-734q-64 -25 -135 -25q-213 0 -343 188t-130 539zM289 702q0 -154 20.5 -266.5t59 -178.5t88.5 -97t114 -31q285 0 285 576 q0 577 -285 577q-282 0 -282 -580z" />
<glyph unicode="&#x153;" horiz-adv-x="1548" d="M92 539q0 266 107 414.5t299 148.5q199 0 307 -207q108 207 297 207q173 0 268.5 -138t95.5 -393q0 -44 -4 -94h-565q9 -183 69.5 -268.5t155.5 -85.5q67 0 121 21.5t111 68.5l80 -102q-139 -136 -318 -136q-203 0 -315 215q-110 -215 -305 -215q-191 0 -297.5 147 t-106.5 417zM283 539q0 -221 53.5 -319.5t159.5 -98.5q213 0 213 420q0 415 -211 415q-108 0 -161.5 -97.5t-53.5 -319.5zM897 610h395v15q0 333 -190 333q-191 0 -205 -348z" />
<glyph unicode="&#x178;" horiz-adv-x="940" d="M4 1411h199l272 -704l270 704h191l-373 -868v-543h-186v541zM195 1712q0 48 30.5 80.5t77.5 32.5t78 -32.5t31 -80.5t-31 -80.5t-78 -32.5t-77.5 32.5t-30.5 80.5zM553 1712q0 47 31.5 80t77.5 33q47 0 77.5 -32.5t30.5 -80.5t-30.5 -80.5t-77.5 -32.5q-46 0 -77.5 33 t-31.5 80z" />
<glyph unicode="&#x2c6;" horiz-adv-x="696" d="M72 1382l229 238h115l229 -238l-74 -77l-213 172l-215 -172z" />
<glyph unicode="&#x2dc;" horiz-adv-x="698" d="M61 1399q30 81 77.5 127.5t107.5 46.5q39 0 76 -22.5t68 -45t56 -22.5t46 21t45 67l100 -45q-60 -172 -184 -172q-39 0 -77 22.5t-69 45t-55 22.5q-27 0 -46.5 -21.5t-45.5 -70.5z" />
<glyph unicode="&#x2000;" horiz-adv-x="983" />
<glyph unicode="&#x2001;" horiz-adv-x="1966" />
<glyph unicode="&#x2002;" horiz-adv-x="983" />
<glyph unicode="&#x2003;" horiz-adv-x="1966" />
<glyph unicode="&#x2004;" horiz-adv-x="655" />
<glyph unicode="&#x2005;" horiz-adv-x="491" />
<glyph unicode="&#x2006;" horiz-adv-x="327" />
<glyph unicode="&#x2007;" horiz-adv-x="327" />
<glyph unicode="&#x2008;" horiz-adv-x="245" />
<glyph unicode="&#x2009;" horiz-adv-x="393" />
<glyph unicode="&#x200a;" horiz-adv-x="109" />
<glyph unicode="&#x2010;" horiz-adv-x="694" d="M102 565v152h490v-152h-490z" />
<glyph unicode="&#x2011;" horiz-adv-x="694" d="M102 565v152h490v-152h-490z" />
<glyph unicode="&#x2012;" horiz-adv-x="694" d="M102 565v152h490v-152h-490z" />
<glyph unicode="&#x2013;" horiz-adv-x="894" d="M61 565v152h773v-152h-773z" />
<glyph unicode="&#x2014;" horiz-adv-x="1351" d="M61 565v152h1229v-152h-1229z" />
<glyph unicode="&#x2018;" horiz-adv-x="409" d="M86 1133q0 42 33 124l110 283h105l-70 -303q51 -39 51 -98q0 -54 -31 -89.5t-85 -35.5q-52 0 -82.5 34.5t-30.5 84.5z" />
<glyph unicode="&#x2019;" horiz-adv-x="409" d="M76 1012l69 303q-51 39 -51 98q0 54 31.5 89.5t85.5 35.5q52 0 82.5 -34.5t30.5 -84.5q0 -43 -33 -125l-111 -282h-104z" />
<glyph unicode="&#x201a;" horiz-adv-x="409" d="M76 -315l69 303q-51 39 -51 98q0 54 31.5 89.5t85.5 35.5q52 0 82.5 -34.5t30.5 -84.5q0 -43 -33 -125l-111 -282h-104z" />
<glyph unicode="&#x201c;" horiz-adv-x="774" d="M86 1133q0 42 33 124l110 283h105l-70 -303q51 -39 51 -98q0 -54 -31 -89.5t-85 -35.5q-52 0 -82.5 34.5t-30.5 84.5zM451 1133q0 45 32 124l111 283h104l-69 -303q51 -39 51 -98q0 -54 -31.5 -89.5t-85.5 -35.5q-52 0 -82 34.5t-30 84.5z" />
<glyph unicode="&#x201d;" horiz-adv-x="774" d="M76 1012l69 303q-51 39 -51 98q0 54 31.5 89.5t85.5 35.5q52 0 82.5 -34.5t30.5 -84.5q0 -43 -33 -125l-111 -282h-104zM440 1012l70 303q-51 39 -51 98q0 54 31 89.5t85 35.5q52 0 82.5 -34.5t30.5 -84.5q0 -43 -33 -125l-110 -282h-105z" />
<glyph unicode="&#x201e;" horiz-adv-x="774" d="M76 -315l69 303q-51 39 -51 98q0 54 31.5 89.5t85.5 35.5q52 0 82.5 -34.5t30.5 -84.5q0 -43 -33 -125l-111 -282h-104zM440 -315l70 303q-51 39 -51 98q0 54 31 89.5t85 35.5q52 0 82.5 -34.5t30.5 -84.5q0 -43 -33 -125l-110 -282h-105z" />
<glyph unicode="&#x2022;" horiz-adv-x="618" d="M92 700q0 96 61 159t156 63q94 0 155.5 -63.5t61.5 -158.5q0 -96 -61 -158.5t-156 -62.5t-156 63t-61 158z" />
<glyph unicode="&#x2026;" horiz-adv-x="1284" d="M82 111q0 56 36.5 95.5t94.5 39.5q60 0 96.5 -39.5t36.5 -95.5t-36.5 -96t-96.5 -40q-58 0 -94.5 40t-36.5 96zM510 111q0 56 36.5 95.5t94.5 39.5q60 0 96.5 -39.5t36.5 -95.5t-36.5 -96t-96.5 -40q-58 0 -94.5 40t-36.5 96zM938 111q0 56 36.5 95.5t94.5 39.5 q60 0 96.5 -39.5t36.5 -95.5t-36.5 -96t-96.5 -40q-58 0 -94.5 40t-36.5 96z" />
<glyph unicode="&#x202f;" horiz-adv-x="393" />
<glyph unicode="&#x2039;" horiz-adv-x="612" d="M102 524v125l299 443l109 -70l-238 -434l238 -434l-109 -70z" />
<glyph unicode="&#x203a;" horiz-adv-x="612" d="M102 154l238 434l-238 434l109 70l299 -443v-125l-299 -440z" />
<glyph unicode="&#x205f;" horiz-adv-x="491" />
<glyph unicode="&#x20ac;" horiz-adv-x="974" d="M37 475l26 121h113v188h-139l26 123h119q41 240 160.5 362t288.5 122q174 0 307 -115l-68 -121q-61 46 -114 67t-119 21q-214 0 -264 -336h428l-29 -123h-407v-188h376l-24 -121h-348q18 -189 86 -269.5t190 -80.5q65 0 119.5 20.5t120.5 59.5v-152q-139 -78 -262 -78 q-375 0 -441 500h-145z" />
<glyph unicode="&#x2122;" horiz-adv-x="1490" d="M57 1284v127h570l-21 -127h-198v-674h-144v674h-207zM664 610l26 801h193l141 -561l129 561h199l26 -801h-139l-12 430q-2 125 4 238h-2l-146 -584h-118l-160 582h-2q8 -93 4 -236l-12 -430h-131z" />
<glyph unicode="&#x25fc;" horiz-adv-x="1075" d="M0 0v1075h1075v-1075h-1075z" />
<glyph unicode="&#xfb03;" horiz-adv-x="1470" d="M20 938v141h142v150q0 128 77.5 206t225.5 78q134 0 262 -61q85 82 236 82q139 0 266 -74l-60 -119q-92 45 -196 45q-77 0 -110.5 -34t-33.5 -107v-166h492v-1079h-180v938h-312v-938h-180v938h-307v-938h-180v938h-142zM342 1079h307v164q0 42 10 90q-79 35 -176 35 q-78 0 -109.5 -32t-31.5 -105v-152z" />
<glyph unicode="&#xfb04;" horiz-adv-x="1509" d="M20 938v141h142v150q0 128 77.5 206t225.5 78q139 0 258 -61q82 82 229 82q100 0 203 -39l174 21v-1323q0 -68 57 -68q27 0 52 10l41 -123q-61 -37 -131 -37q-90 0 -144.5 57.5t-54.5 155.5v1172q-91 29 -178 29q-78 0 -110 -32.5t-32 -105.5v-172h203l-20 -141h-183 v-938h-180v938h-307v-938h-180v938h-142zM342 1079h307v170q0 39 10 84q-82 35 -176 35q-78 0 -109.5 -32t-31.5 -105v-152z" />
</font>
</defs>
</svg>
